<?xml version="1.0" standalone="no"?>
<!DOCTYPE svg PUBLIC "-//W3C//DTD SVG 20010904//EN"
 "http://www.w3.org/TR/2001/REC-SVG-20010904/DTD/svg10.dtd">
<svg version="1.0" xmlns="http://www.w3.org/2000/svg"
 width="512.000000pt" height="512.000000pt" viewBox="0 0 512.000000 512.000000"
 preserveAspectRatio="xMidYMid meet">
<metadata>
Created by potrace 1.14, written by Peter Selinger 2001-2017
</metadata>
<g transform="translate(0.000000,512.000000) scale(0.100000,-0.100000)"
fill="#000000" stroke="none">
<path d="M2593 4942 c-40 -4 -47 -13 -148 -197 -13 -22 -83 -146 -157 -275
-337 -590 -332 -580 -322 -608 5 -15 19 -31 30 -37 12 -6 96 -10 202 -10 100
0 182 -2 182 -5 0 -3 -21 -51 -47 -107 l-48 -102 -55 -11 c-30 -6 -84 -18
-120 -27 -36 -10 -69 -18 -75 -19 -121 -21 -564 -242 -642 -320 -18 -17 -35
-14 -39 7 -33 166 -110 377 -198 545 -47 89 -153 259 -181 290 -5 7 -26 31
-45 55 -211 265 -525 466 -795 509 -57 9 -71 8 -91 -5 -13 -8 -24 -16 -24 -18
0 -1 -4 -33 -8 -72 -9 -90 -9 -317 0 -420 13 -148 54 -337 105 -485 26 -78
110 -277 123 -295 4 -5 24 -41 44 -78 97 -178 229 -347 378 -482 26 -24 150
-122 166 -132 2 -1 -10 -21 -26 -45 -36 -53 -130 -239 -165 -328 -67 -172
-103 -349 -106 -520 -8 -596 439 -1150 1141 -1414 82 -31 290 -92 340 -100 21
-3 57 -10 80 -15 24 -6 66 -13 93 -16 28 -4 77 -10 110 -15 33 -4 152 -7 265
-7 257 -1 426 20 649 79 581 153 1027 483 1250 926 40 79 106 274 117 347 14
88 12 330 -2 405 -8 41 -17 88 -20 104 -22 127 -143 410 -231 544 -20 29 -34
54 -32 55 308 210 559 555 704 967 84 237 118 440 119 705 1 185 -8 284 -29
304 -49 49 -334 -39 -526 -162 -353 -226 -649 -665 -774 -1143 -13 -53 -26
-99 -29 -101 -2 -2 -48 26 -102 62 -172 115 -460 246 -619 280 l-30 7 50 46
c28 26 85 79 128 117 44 39 89 79 101 90 12 11 55 49 96 85 167 147 178 162
146 206 -13 17 -31 19 -226 24 l-211 5 92 110 c50 61 108 130 128 154 20 25
65 79 101 121 36 42 105 126 155 186 49 60 98 118 107 128 24 26 23 69 -2 91
-18 16 -55 18 -532 19 -282 0 -528 0 -545 -2z"/>
</g>
</svg>
